<?xml version="1.0" encoding="utf-8"?>
<svg xmlns="http://www.w3.org/2000/svg" viewBox="0 0 50 50" width="100" height="100">
  <path d="M12 0C10.898438 0 10 0.898438 10 2L10 22C10 23.101563 10.898438 24 12 24L42 24C43.101563 24 44 23.101563 44 22L44 2C44 0.898438 43.101563 0 42 0 Z M 22.5 5L31.5 5C32.328125 5 33 5.671875 33 6.5C33 7.328125 32.328125 8 31.5 8L22.5 8C21.671875 8 21 7.328125 21 6.5C21 5.671875 21.671875 5 22.5 5 Z M 13.40625 27.90625C10.90625 27.90625 8.699219 28.800781 0.5 32.5C0 32.699219 -0.199219 33.3125 0 33.8125L5.3125 45.59375C5.414063 45.894531 5.707031 46.085938 5.90625 46.1875C6.207031 46.289063 6.488281 46.195313 6.6875 46.09375L9.40625 44.3125C10.605469 43.511719 11.085938 43.386719 12.6875 44.1875L14.8125 45.3125C17.3125 46.613281 20.6875 48.40625 21.6875 48.90625C23.289063 49.707031 24.585938 50 25.6875 50C27.6875 50 28.988281 49.207031 30.1875 48.40625C31.386719 47.605469 46.011719 38.085938 47.3125 37.1875C48.914063 36.085938 49.90625 34.8125 49.90625 33.8125C50.003906 31.011719 47.304688 30.3125 44.90625 31.8125L34.1875 39C32.488281 40 31 39.90625 30 39.90625L24 39.90625C21.300781 39.90625 18.007813 38.90625 17.90625 38.90625C17.605469 38.804688 17.492188 38.511719 17.59375 38.3125C17.695313 38.011719 17.886719 37.898438 18.1875 38L18.3125 38C18.613281 38.101563 21.914063 39 24.3125 39L30 39C30.800781 39 31.414063 38.800781 31.8125 38.5C32.210938 38.199219 32.488281 37.898438 32.6875 37.5C32.6875 37.398438 32.8125 37.410156 32.8125 37.3125L32.8125 37.1875C32.914063 36.886719 32.90625 36.707031 32.90625 36.40625C32.90625 35.207031 31.90625 34.007813 29.90625 33.90625C28.304688 33.804688 26.113281 33.40625 24.3125 32.90625C23.3125 32.605469 22.585938 32.292969 22.1875 32.09375C21.886719 31.894531 21.585938 31.585938 21.1875 31.1875C19.988281 29.886719 18.207031 27.90625 13.40625 27.90625 Z M 35.09375 28C33.992188 28 32.8125 28.394531 31.8125 29.09375C31.113281 29.492188 28.113281 31.402344 26.3125 32.5C27.613281 32.800781 29 33 30 33C30.699219 33 31.40625 33.207031 31.90625 33.40625L38.40625 29C38.40625 29 36.894531 28 35.09375 28 Z M 41.6875 29C40.6875 29 39.511719 29.398438 37.8125 30.5L32.8125 33.90625C33.613281 34.605469 34 35.507813 34 36.40625C34 37.007813 33.804688 37.710938 33.40625 38.3125L33.5 38.1875L33.59375 38.09375L44.59375 30.8125C44.292969 29.511719 42.6875 29 41.6875 29Z" fill="#FFFFFF" />
</svg>