<?xml version="1.0" encoding="utf-8"?>
<svg xmlns="http://www.w3.org/2000/svg" viewBox="0 0 64 64" width="128" height="128">
  <path d="M32 6C17.641 6 6 17.641 6 32C6 33.924 6.2143281 35.796562 6.6113281 37.601562L10.855469 38.056641C10.302469 36.130641 10 34.101 10 32C10 19.869 19.869 10 32 10C38.615909 10 44.551673 12.942341 48.587891 17.580078L45.505859 21.652344L58 22L54.275391 10.068359L51.050781 14.328125C46.302784 9.2111633 39.530462 6 32 6 z M 53.164062 26.009766C53.705062 27.915766 54 29.923 54 32C54 44.131 44.131 54 32 54C25.383867 54 19.447695 51.057454 15.412109 46.419922L18.494141 42.347656L6 42L9.7246094 53.931641L12.945312 49.675781C17.692812 54.79188 24.469735 58 32 58C46.359 58 58 46.359 58 32C58 30.107 57.793203 28.264328 57.408203 26.486328L53.164062 26.009766 z" fill="#FFFFFF" />
</svg>