<svg xmlns="http://www.w3.org/2000/svg" viewBox="0 0 32 32">
  <path d="M10 7C6.699219 7 4 9.699219 4 13C4 14.984375 4.976563 16.75 6.46875 17.84375C3.832031 19.152344 2 21.863281 2 25L4 25C4 21.675781 6.675781 19 10 19C13.324219 19 16 21.675781 16 25L18 25C18 21.863281 16.167969 19.152344 13.53125 17.84375C15.023438 16.75 16 14.984375 16 13C16 9.699219 13.300781 7 10 7 Z M 10 9C12.222656 9 14 10.777344 14 13C14 15.222656 12.222656 17 10 17C7.777344 17 6 15.222656 6 13C6 10.777344 7.777344 9 10 9 Z M 24 14.8125L23.46875 15.15625L19.46875 17.75L19 18.03125L19 25L29 25L29 18.03125L28.53125 17.75L24.53125 15.15625 Z M 24 17.1875L27 19.125L27 23L21 23L21 19.125Z" fill="#FFFFFF" />
</svg>