<svg xmlns="http://www.w3.org/2000/svg" viewBox="0 0 32 32">
  <path d="M21 4C19.207031 4 17.582031 4.335938 16.3125 4.96875C15.042969 5.601563 14 6.632813 14 8L14 12C14 12.128906 14.042969 12.253906 14.0625 12.375C13.132813 12.132813 12.101563 12 11 12C9.207031 12 7.582031 12.335938 6.3125 12.96875C5.042969 13.601563 4 14.632813 4 16L4 24C4 25.367188 5.042969 26.398438 6.3125 27.03125C7.582031 27.664063 9.207031 28 11 28C12.792969 28 14.417969 27.664063 15.6875 27.03125C16.957031 26.398438 18 25.367188 18 24L18 23.59375C18.917969 23.835938 19.921875 24 21 24C22.792969 24 24.417969 23.664063 25.6875 23.03125C26.957031 22.398438 28 21.367188 28 20L28 8C28 6.632813 26.957031 5.601563 25.6875 4.96875C24.417969 4.335938 22.792969 4 21 4 Z M 21 6C22.523438 6 23.878906 6.328125 24.78125 6.78125C25.683594 7.234375 26 7.710938 26 8C26 8.289063 25.683594 8.765625 24.78125 9.21875C23.878906 9.671875 22.523438 10 21 10C19.476563 10 18.121094 9.671875 17.21875 9.21875C16.316406 8.765625 16 8.289063 16 8C16 7.710938 16.316406 7.234375 17.21875 6.78125C18.121094 6.328125 19.476563 6 21 6 Z M 16 10.84375C16.105469 10.902344 16.203125 10.976563 16.3125 11.03125C17.582031 11.664063 19.207031 12 21 12C22.792969 12 24.417969 11.664063 25.6875 11.03125C25.796875 10.976563 25.894531 10.902344 26 10.84375L26 12C26 12.289063 25.683594 12.765625 24.78125 13.21875C23.878906 13.671875 22.523438 14 21 14C19.476563 14 18.121094 13.671875 17.21875 13.21875C16.316406 12.765625 16 12.289063 16 12 Z M 11 14C12.523438 14 13.878906 14.328125 14.78125 14.78125C15.683594 15.234375 16 15.710938 16 16C16 16.289063 15.683594 16.765625 14.78125 17.21875C13.878906 17.671875 12.523438 18 11 18C9.476563 18 8.121094 17.671875 7.21875 17.21875C6.316406 16.765625 6 16.289063 6 16C6 15.710938 6.316406 15.234375 7.21875 14.78125C8.121094 14.328125 9.476563 14 11 14 Z M 26 14.84375L26 16C26 16.289063 25.683594 16.765625 24.78125 17.21875C23.878906 17.671875 22.523438 18 21 18C19.863281 18 18.835938 17.8125 18 17.53125L18 16C18 15.871094 17.957031 15.746094 17.9375 15.625C18.867188 15.867188 19.898438 16 21 16C22.792969 16 24.417969 15.664063 25.6875 15.03125C25.796875 14.976563 25.894531 14.902344 26 14.84375 Z M 6 18.84375C6.105469 18.902344 6.203125 18.976563 6.3125 19.03125C7.582031 19.664063 9.207031 20 11 20C12.792969 20 14.417969 19.664063 15.6875 19.03125C15.796875 18.976563 15.894531 18.902344 16 18.84375L16 20C16 20.289063 15.683594 20.765625 14.78125 21.21875C13.878906 21.671875 12.523438 22 11 22C9.476563 22 8.121094 21.671875 7.21875 21.21875C6.316406 20.765625 6 20.289063 6 20 Z M 26 18.84375L26 20C26 20.289063 25.683594 20.765625 24.78125 21.21875C23.878906 21.671875 22.523438 22 21 22C19.863281 22 18.835938 21.839844 18 21.5625L18 19.625C18.917969 19.867188 19.917969 20 21 20C22.792969 20 24.417969 19.664063 25.6875 19.03125C25.796875 18.976563 25.894531 18.902344 26 18.84375 Z M 6 22.84375C6.105469 22.902344 6.203125 22.976563 6.3125 23.03125C7.582031 23.664063 9.207031 24 11 24C12.792969 24 14.417969 23.664063 15.6875 23.03125C15.796875 22.976563 15.894531 22.902344 16 22.84375L16 24C16 24.289063 15.683594 24.765625 14.78125 25.21875C13.878906 25.671875 12.523438 26 11 26C9.476563 26 8.121094 25.671875 7.21875 25.21875C6.316406 24.765625 6 24.289063 6 24Z" fill="#FFFFFF" />
</svg>