<svg xmlns="http://www.w3.org/2000/svg" viewBox="0 0 50 50">
  <path d="M50 27.242188C50 29.0625 44.664063 31.605469 35.976563 31.605469C33.855469 31.605469 31.828125 31.445313 29.9375 31.136719C29.96875 30.964844 30.003906 30.796875 30.003906 30.621094L30.003906 25.652344C31.894531 25.941406 33.894531 26.09375 35.976563 26.09375C41.414063 26.09375 47.085938 24.996094 50 22.921875 Z M 28.003906 30.621094C28.003906 32.433594 22.6875 34.96875 14.03125 34.96875C5.375 34.96875 0.0625 32.4375 0.0625 30.621094L0.0625 26.324219C2.96875 28.390625 8.613281 29.480469 14.03125 29.480469C19.449219 29.480469 25.09375 28.390625 28.003906 26.324219 Z M 0.0625 33.808594C2.972656 35.875 8.617188 36.96875 14.03125 36.96875C19.449219 36.96875 25.09375 35.875 28.003906 33.808594L28.003906 38.105469C28.003906 39.921875 22.6875 42.453125 14.03125 42.453125C5.378906 42.453125 0.0625 39.921875 0.0625 38.105469 Z M 50 12.21875C50 14.039063 44.664063 16.582031 35.976563 16.582031C27.289063 16.582031 21.953125 14.039063 21.953125 12.21875L21.953125 7.898438C24.867188 9.972656 30.535156 11.070313 35.976563 11.070313C41.414063 11.070313 47.085938 9.972656 50 7.898438 Z M 35.976563 0.339844C44.664063 0.339844 50 2.882813 50 4.703125C50 6.527344 44.664063 9.070313 35.976563 9.070313C27.289063 9.070313 21.953125 6.527344 21.953125 4.703125C21.953125 2.882813 27.285156 0.339844 35.976563 0.339844 Z M 21.953125 15.40625C24.867188 17.484375 30.535156 18.582031 35.976563 18.582031C41.414063 18.582031 47.085938 17.484375 50 15.40625L50 19.730469C50 21.550781 44.664063 24.09375 35.976563 24.09375C33.894531 24.09375 31.828125 23.925781 29.941406 23.621094C29.96875 23.460938 30.003906 23.304688 30.003906 23.136719C30.003906 20.457031 26.515625 18.585938 21.953125 17.597656 Z M 14.03125 18.789063C22.6875 18.789063 28.003906 21.320313 28.003906 23.136719C28.003906 24.949219 22.6875 27.480469 14.03125 27.480469C5.375 27.480469 0.0625 24.949219 0.0625 23.136719C0.0625 21.320313 5.378906 18.789063 14.03125 18.789063 Z M 14.03125 49.9375C5.378906 49.9375 0.0625 47.40625 0.0625 45.589844L0.0625 41.292969C2.96875 43.359375 8.613281 44.453125 14.03125 44.453125C19.449219 44.453125 25.09375 43.359375 28.003906 41.292969L28.003906 45.589844C28.003906 47.40625 22.6875 49.9375 14.03125 49.9375 Z M 35.976563 39.117188C33.867188 39.117188 31.839844 38.957031 29.933594 38.648438C29.96875 38.46875 30.003906 38.292969 30.003906 38.105469L30.003906 33.167969C31.886719 33.453125 33.890625 33.605469 35.976563 33.605469C41.414063 33.605469 47.085938 32.507813 50 30.433594L50 34.753906C50 36.574219 44.664063 39.117188 35.976563 39.117188Z" fill="#E56133" />
</svg>