<?xml version="1.0" encoding="utf-8"?>
<svg xmlns="http://www.w3.org/2000/svg" viewBox="0 0 24 24" width="48" height="48">
  <path d="M11 3L11 4L11 11L15 11L15 12.697266L13.464844 15L11 15L7 15C6.2420992 15 5.4241197 15.165179 4.6894531 15.455078C4.3221198 15.600028 3.9762483 15.771902 3.6621094 16.033203C3.3479705 16.294504 3 16.713682 3 17.3125L3 21L4 21L11 21L11 17L13.464844 17C14.132177 17 14.758029 16.666693 15.128906 16.109375L17 13.302734L17 11L21 11L21 3L11 3 z M 13 5L19 5L19 9L13 9L13 5 z M 7 9 A 2 2 0 0 0 5 11 A 2 2 0 0 0 7 13 A 2 2 0 0 0 9 11 A 2 2 0 0 0 7 9 z M 7 17L9 17L9 19L5 19L5 17.539062C5.0803284 17.481478 5.2159456 17.395713 5.421875 17.314453C5.8909584 17.129353 6.5729008 17 7 17 z" fill="#FFFFFF" />
</svg>