<svg xmlns="http://www.w3.org/2000/svg" viewBox="0 0 32 32">
  <path d="M4 5L4 27L21 27C23.136719 27 25.117188 26.34375 26.59375 25.09375C28.070313 23.84375 29 21.984375 29 19.78125C29 16.964844 27.109375 13.992188 25.3125 11.5625C23.515625 9.132813 21.71875 7.3125 21.71875 7.3125L21.03125 6.59375L20.3125 7.25C20.3125 7.25 19.277344 8.207031 18 9.6875L18 5 Z M 6 7L16 7L16 12.28125C14.984375 13.707031 14.015625 15.300781 13.46875 17L12 17L12 19L13.0625 19C13.035156 19.261719 13 19.519531 13 19.78125C13 20.199219 13.027344 20.609375 13.09375 21L12 21L12 23L13.78125 23C14.171875 23.761719 14.683594 24.445313 15.3125 25L6 25 Z M 8 9L8 11L10 11L10 9 Z M 12 9L12 11L14 11L14 9 Z M 20.96875 9.53125C21.46875 10.0625 22.332031 10.917969 23.6875 12.75C25.390625 15.054688 27 17.972656 27 19.78125C27 21.445313 26.371094 22.667969 25.3125 23.5625C25.210938 23.648438 25.113281 23.730469 25 23.8125C25.074219 23.507813 25.125 23.203125 25.125 22.875C25.125 17.949219 22.4375 14.96875 22.4375 14.96875L20.625 12.9375L20.6875 15.65625C20.6875 15.65625 20.710938 16.636719 20.59375 17.5625C20.542969 17.972656 20.460938 18.316406 20.375 18.5625C20.28125 18.507813 20.234375 18.519531 20.09375 18.375C19.855469 18.125 19.6875 17.875 19.6875 17.875L18.71875 16.34375L17.9375 17.96875C17.9375 17.96875 16.875 20.0625 16.875 22.875C16.875 23.1875 16.925781 23.488281 17 23.78125C16.894531 23.703125 16.785156 23.644531 16.6875 23.5625C15.628906 22.667969 15 21.445313 15 19.78125C15 17.554688 16.589844 14.703125 18.28125 12.5C19.621094 10.757813 20.46875 10.015625 20.96875 9.53125 Z M 8 13L8 15L10 15L10 13 Z M 12 13L12 15L14 15L14 13 Z M 8 17L8 19L10 19L10 17 Z M 22.34375 18.875C22.753906 19.933594 23.125 21.207031 23.125 22.875C23.125 23.90625 22.40625 24.769531 21.4375 24.96875C21.300781 24.996094 21.148438 25 21 25C20.847656 25 20.710938 24.976563 20.5625 24.96875C19.59375 24.769531 18.875 23.90625 18.875 22.875C18.875 21.824219 19.09375 20.984375 19.28125 20.28125C19.621094 20.523438 20.007813 20.71875 20.5625 20.71875C20.992188 20.71875 21.398438 20.527344 21.65625 20.28125C21.914063 20.035156 22.070313 19.769531 22.1875 19.5C22.273438 19.300781 22.289063 19.082031 22.34375 18.875 Z M 8 21L8 23L10 23L10 21Z" fill="#FFFFFF" />
</svg>