<?xml version="1.0" encoding="utf-8"?>
<svg xmlns="http://www.w3.org/2000/svg" viewBox="0 0 24 24" width="48" height="48">
  <path d="M6 2C4.9 2 4 2.9 4 4L4 20C4 21.1 4.9 22 6 22L10 22C10.552 22 11 21.552 11 21C11 20.448 10.552 20 10 20L6 20L6 4L18 4L18 9C18 9.552 18.448 10 19 10C19.552 10 20 9.552 20 9L20 4C20 2.9 19.1 2 18 2L6 2 z M 9 7C8.448 7 8 7.448 8 8C8 8.552 8.448 9 9 9L15 9C15.552 9 16 8.552 16 8C16 7.448 15.552 7 15 7L9 7 z M 9 11C8.45 11 8 11.45 8 12C8 12.55 8.45 13 9 13L11.519531 13C12.119531 12.18 12.889297 11.5 13.779297 11L9 11 z M 17.5 12C16.20102 12 14.993619 12.454471 14.050781 13.224609C12.795093 14.228018 12 15.778346 12 17.5C12 17.705958 12.012209 17.912543 12.037109 18.115234C12.344245 20.859251 14.678639 23 17.5 23C18.654525 23 19.72665 22.639807 20.613281 22.027344L22.292969 23.707031C22.683969 24.098031 23.317031 24.098031 23.707031 23.707031C24.098031 23.317031 24.098031 22.682969 23.707031 22.292969L22.027344 20.613281C22.639807 19.72665 23 18.654525 23 17.5C23 14.471847 20.528153 12 17.5 12 z M 18 14.048828C19.707479 14.289008 21 15.719723 21 17.5C21 19.451847 19.451847 21 17.5 21C15.722628 21 14.291396 19.698081 14.046875 18L17 18C17.552 18 18 17.552 18 17L18 14.048828 z M 9 15C8.45 15 8 15.45 8 16C8 16.55 8.45 17 9 17L10.029297 17C10.059297 16.3 10.199453 15.63 10.439453 15L9 15 z" fill="#FFFFFF" />
</svg>