<?xml version="1.0" encoding="utf-8"?>
<svg xmlns="http://www.w3.org/2000/svg" viewBox="0 0 26 26" width="52" height="52">
  <path d="M20 2.03125C19.449219 2.03125 19 2.480469 19 3.03125L19 7.8125L13.71875 2.53125C13.328125 2.140625 12.671875 2.140625 12.28125 2.53125L0.5625 14.28125C0.171875 14.671875 0.171875 15.296875 0.5625 15.6875C0.953125 16.078125 1.578125 16.078125 1.96875 15.6875L13 4.65625L24.0625 15.71875C24.257813 15.914063 24.523438 16.03125 24.78125 16.03125C25.039063 16.03125 25.273438 15.914063 25.46875 15.71875C25.859375 15.328125 25.859375 14.703125 25.46875 14.3125L22 10.84375L22 3.03125C22 2.480469 21.550781 2.03125 21 2.03125 Z M 13 6.5L2 17.5L2 23C2 24.65625 3.34375 26 5 26L21 26C22.65625 26 24 24.65625 24 23L24 17.5 Z M 11 16L15 16C15.550781 16 16 16.449219 16 17L16 23C16 23.550781 15.550781 24 15 24L11 24C10.449219 24 10 23.550781 10 23L10 17C10 16.449219 10.449219 16 11 16Z" fill="#1E1C1C" />
</svg>