<?xml version="1.0" encoding="utf-8"?>
<svg xmlns="http://www.w3.org/2000/svg" viewBox="0 0 48 48" width="48" height="48">
  <path d="M24 3.9804688C22.513 3.9809688 21.024969 4.3274844 19.667969 5.0214844L7.9804688 11.039062C6.1424687 11.986063 5 13.861688 5 15.929688L5 32.050781C5 34.118781 6.1434219 35.992406 7.9824219 36.941406L19.669922 42.958984C21.024922 43.652984 22.512047 44 23.998047 44C24.015047 44 24.031828 43.996094 24.048828 43.996094C24.155828 43.253094 24.485391 42.566391 25.025391 42.025391L28.900391 38.148438C28.308391 36.853438 28 35.444 28 34C28 28.486 32.486 24 38 24C39.822 24 41.527 24.498516 43 25.353516L43 15.929688C43 13.861688 41.856578 11.987063 40.017578 11.039062L28.332031 5.0214844C28.331031 5.0214844 28.329125 5.0214844 28.328125 5.0214844C26.972125 4.3264844 25.487 3.9799687 24 3.9804688 z M 11.621094 14.494141C11.814922 14.509469 12.008656 14.562703 12.191406 14.658203L21.023438 19.248047C22.886437 20.215047 25.113563 20.215047 26.976562 19.248047L35.808594 14.658203C36.541594 14.274203 37.448078 14.562828 37.830078 15.298828C38.213078 16.033828 37.927406 16.938313 37.191406 17.320312L28.359375 21.910156C27.452375 22.381156 26.484 22.681844 25.5 22.839844L25.5 37.490234C25.5 38.318234 24.828 38.990234 24 38.990234C23.172 38.990234 22.5 38.318234 22.5 37.490234L22.5 22.839844C21.515 22.681844 20.547625 22.381156 19.640625 21.910156L10.808594 17.320312C10.073594 16.938312 9.7889219 16.033828 10.169922 15.298828C10.457922 14.747578 11.039609 14.448156 11.621094 14.494141 z M 38 26C33.589 26 30 29.589 30 34C30 35.665 30.512719 37.210187 31.386719 38.492188L26.439453 43.439453C26.145453 43.732453 26 44.116 26 44.5C26 44.884 26.146453 45.267547 26.439453 45.560547C27.025453 46.145547 27.974547 46.145547 28.560547 45.560547L33.507812 40.615234C34.789813 41.488234 36.335 42 38 42C42.411 42 46 38.411 46 34C46 29.589 42.411 26 38 26 z M 38 29C40.757 29 43 31.243 43 34C43 36.757 40.757 39 38 39C35.243 39 33 36.757 33 34C33 31.243 35.243 29 38 29 z" fill="#FFFFFF" />
</svg>