<svg xmlns="http://www.w3.org/2000/svg" viewBox="0 0 32 32">
  <path d="M3 5L3 23C3 25.210938 4.789063 27 7 27L25 27C27.210938 27 29 25.210938 29 23L29 12L23 12L23 5 Z M 5 7L21 7L21 23C21 23.730469 21.222656 24.410156 21.5625 25L7 25C5.808594 25 5 24.191406 5 23 Z M 7 9L7 14L19 14L19 9 Z M 9 11L17 11L17 12L9 12 Z M 23 14L27 14L27 23C27 24.191406 26.191406 25 25 25C23.808594 25 23 24.191406 23 23 Z M 7 15L7 17L12 17L12 15 Z M 14 15L14 17L19 17L19 15 Z M 7 18L7 20L12 20L12 18 Z M 14 18L14 20L19 20L19 18 Z M 7 21L7 23L12 23L12 21 Z M 14 21L14 23L19 23L19 21Z" fill="#FFFFFF" />
</svg>