<svg xmlns="http://www.w3.org/2000/svg" viewBox="0 0 32 32">
  <path d="M3 6L3 25L13 25C14.101563 25 15 25.898438 15 27L17 27C17 25.898438 17.898438 25 19 25L29 25L29 6L19 6C17.808594 6 16.734375 6.527344 16 7.359375C15.265625 6.527344 14.191406 6 13 6 Z M 5 8L13 8C14.101563 8 15 8.898438 15 10L17 10C17 8.898438 17.898438 8 19 8L27 8L27 23L19 23C17.808594 23 16.734375 23.527344 16 24.359375C15.265625 23.527344 14.191406 23 13 23L5 23 Z M 15 12L15 14L17 14L17 12 Z M 15 16L15 18L17 18L17 16 Z M 15 20L15 22L17 22L17 20Z" fill="#FFFFFF" />
</svg>