<svg xmlns="http://www.w3.org/2000/svg" viewBox="0 0 32 32">
  <path d="M6 3L6 29L26 29L26 13.4375L27.71875 11.71875L28 11.40625L28 3 Z M 8 5L22 5L22 11.40625L22.28125 11.71875L24 13.4375L24 27L8 27 Z M 24 5L26 5L26 10.5625L25 11.5625L24 10.5625 Z M 16 11C13.800781 11 12 12.800781 12 15C12 16.113281 12.476563 17.117188 13.21875 17.84375C11.886719 18.746094 11 20.28125 11 22L13 22C13 20.332031 14.332031 19 16 19C17.667969 19 19 20.332031 19 22L21 22C21 20.28125 20.113281 18.746094 18.78125 17.84375C19.523438 17.117188 20 16.113281 20 15C20 12.800781 18.199219 11 16 11 Z M 16 13C17.117188 13 18 13.882813 18 15C18 16.117188 17.117188 17 16 17C14.882813 17 14 16.117188 14 15C14 13.882813 14.882813 13 16 13Z" fill="#FFFFFF" />
</svg>