<svg xmlns="http://www.w3.org/2000/svg" viewBox="0 0 32 32">
  <path d="M16 2C14.743378 2 13.85942 2.8933056 13.416016 4L11 4L10 4L5 4L5 29L27 29L27 4L22 4L21 4L18.583984 4C18.14058 2.8933056 17.256622 2 16 2 z M 16 4C16.56503 4 17 4.4349698 17 5L17 6L18 6L20 6L20 8L12 8L12 6L15 6L15 5C15 4.4349698 15.43497 4 16 4 z M 7 6L10 6L10 10L22 10L22 6L25 6L25 27L7 27L7 6 z M 10 14L10 16L18 16L18 14L10 14 z M 20 14L20 16L22 16L22 14L20 14 z M 10 18L10 20L18 20L18 18L10 18 z M 20 18L20 20L22 20L22 18L20 18 z M 10 22L10 24L18 24L18 22L10 22 z M 20 22L20 24L22 24L22 22L20 22 z" fill="#FFFFFF" />
</svg>