<?xml version="1.0" encoding="utf-8"?>
<svg xmlns="http://www.w3.org/2000/svg" viewBox="0 0 24 24" width="50" height="50">
  <path d="M6 2C4.897 2 4 2.897 4 4L4 20C4 21.103 4.897 22 6 22L12.259766 22C11.837766 21.396 11.509922 20.723 11.294922 20L6 20L6 4L13 4L13 9L18 9L18 11C18.695 11 19.366 11.105922 20 11.294922L20 8L14 2L6 2 z M 18 13C15.2 13 13 15.2 13 18C13 20.8 15.2 23 18 23C19 23 20.000781 22.699219 20.800781 22.199219L22.599609 24L24 22.599609L22.199219 20.800781C22.699219 20.000781 23 19 23 18C23 15.2 20.8 13 18 13 z M 18 15C19.7 15 21 16.3 21 18C21 19.7 19.7 21 18 21C16.3 21 15 19.7 15 18C15 16.3 16.3 15 18 15 z" fill="#FFFFFF" />
</svg>